<?xml version="1.0" encoding="UTF-8"?>
<!-- OG 封面 1200×630 · 用 Hexo 搭建博客 · 明快浅灰蓝 -->
<svg xmlns="http://www.w3.org/2000/svg" viewBox="0 0 1200 630" width="1200" height="630">
  <defs>
    <linearGradient id="bg-b" x1="0%" y1="0%" x2="100%" y2="100%">
      <stop offset="0%"   stop-color="#f5f7fb"/>
      <stop offset="100%" stop-color="#e3e8f1"/>
    </linearGradient>
  </defs>
  <rect width="1200" height="630" fill="url(#bg-b)"/>

  <!-- 背景极淡竖向网格 -->
  <g stroke="#c9d3e3" stroke-opacity="0.5" stroke-width="0.5">
    <line x1="240" y1="0" x2="240" y2="630"/>
    <line x1="480" y1="0" x2="480" y2="630"/>
    <line x1="720" y1="0" x2="720" y2="630"/>
    <line x1="960" y1="0" x2="960" y2="630"/>
  </g>

  <!-- Lucide · rocket -->
  <g transform="translate(170 195) scale(10)"
     fill="none" stroke="#3451b2" stroke-width="0.2"
     stroke-linecap="round" stroke-linejoin="round">
    <path d="M4.5 16.5c-1.5 1.26-2 5-2 5s3.74-.5 5-2c.71-.84.7-2.13-.09-2.91a2.18 2.18 0 0 0-2.91-.09z"/>
    <path d="m12 15-3-3a22 22 0 0 1 2-3.95A12.88 12.88 0 0 1 22 2c0 2.72-.78 7.5-6 11a22.35 22.35 0 0 1-4 2z"/>
    <path d="M9 12H4s.55-3.03 2-4c1.62-1.08 5 0 5 0"/>
    <path d="M12 15v5s3.03-.55 4-2c1.08-1.62 0-5 0-5"/>
  </g>

  <!-- 右侧文字 -->
  <g fill="#1a2238"
     font-family="'PingFang SC','Microsoft YaHei UI','Helvetica Neue','Segoe UI',Arial,sans-serif">
    <text x="480" y="200"
          font-family="'SFMono-Regular','Menlo','Consolas',monospace"
          font-size="16" fill="#3451b2" letter-spacing="4">GUIDE · 新手教程</text>

    <text x="480" y="310" font-size="62" font-weight="600" letter-spacing="-1">用 Hexo 搭建</text>
    <text x="480" y="386" font-size="62" font-weight="600" letter-spacing="-1">属于自己的 Blog</text>

    <text x="480" y="452" font-size="20" font-weight="400" fill="#596480">
      从零到上线 · 完全免费 · 大约一小时
    </text>
  </g>

  <line x1="110" y1="555" x2="1090" y2="555" stroke="#c9d3e3" stroke-width="1"/>
  <text x="110" y="590" font-size="18" fill="#1a2238" font-weight="500"
        font-family="'PingFang SC','Segoe UI',sans-serif">Looks Blog</text>
  <text x="1090" y="590" text-anchor="end" font-size="16" fill="#7985a3"
        font-family="'SFMono-Regular','Menlo','Consolas',monospace">7788dev.github.io</text>
</svg>
