<?xml version="1.0" encoding="UTF-8"?>
<svg xmlns="http://www.w3.org/2000/svg" viewBox="0 0 1180 420" width="1180" height="420">
  <defs>
    <linearGradient id="bg" x1="0" y1="0" x2="1" y2="1">
      <stop offset="0%" stop-color="#07111f"/>
      <stop offset="100%" stop-color="#10251f"/>
    </linearGradient>
    <linearGradient id="card" x1="0" y1="0" x2="1" y2="1">
      <stop offset="0%" stop-color="#111d31"/>
      <stop offset="100%" stop-color="#0d1728"/>
    </linearGradient>
    <marker id="arrow" markerWidth="12" markerHeight="12" refX="10" refY="6" orient="auto">
      <path d="M2,2 L10,6 L2,10 Z" fill="#66e6ff"/>
    </marker>
  </defs>
  <rect width="1180" height="420" rx="26" fill="url(#bg)"/>
  <g font-family="'SFMono-Regular','Menlo','Consolas','Microsoft YaHei',monospace">
    <text x="54" y="58" fill="#e9f5ff" font-size="30" font-weight="700">YiDun Click Solver · execution chain</text>
    <text x="55" y="90" fill="#8aa4bf" font-size="16">no browser bridge · no page injection · pure Python replay</text>

    <g transform="translate(52 145)">
      <g>
        <rect width="160" height="96" rx="16" fill="url(#card)" stroke="#274761"/>
        <text x="22" y="38" fill="#66e6ff" font-size="20" font-weight="700">getconf</text>
        <text x="22" y="67" fill="#bfd7ef" font-size="15">dt / zoneId / IR</text>
      </g>
      <line x1="178" y1="48" x2="235" y2="48" stroke="#66e6ff" stroke-width="3" marker-end="url(#arrow)"/>
      <g transform="translate(252 0)">
        <rect width="160" height="96" rx="16" fill="url(#card)" stroke="#274761"/>
        <text x="22" y="38" fill="#66e6ff" font-size="20" font-weight="700">IR upload</text>
        <text x="22" y="67" fill="#bfd7ef" font-size="15">/v4/j/up → tk</text>
      </g>
      <line x1="430" y1="48" x2="487" y2="48" stroke="#66e6ff" stroke-width="3" marker-end="url(#arrow)"/>
      <g transform="translate(504 0)">
        <rect width="160" height="96" rx="16" fill="url(#card)" stroke="#274761"/>
        <text x="22" y="38" fill="#66e6ff" font-size="20" font-weight="700">/api/v3/get</text>
        <text x="22" y="67" fill="#bfd7ef" font-size="15">token / bg</text>
      </g>
      <line x1="682" y1="48" x2="739" y2="48" stroke="#66e6ff" stroke-width="3" marker-end="url(#arrow)"/>
      <g transform="translate(756 0)">
        <rect width="160" height="96" rx="16" fill="url(#card)" stroke="#274761"/>
        <text x="22" y="38" fill="#66e6ff" font-size="20" font-weight="700">local CV</text>
        <text x="22" y="67" fill="#bfd7ef" font-size="15">points in order</text>
      </g>
      <line x1="934" y1="48" x2="991" y2="48" stroke="#66e6ff" stroke-width="3" marker-end="url(#arrow)"/>
      <g transform="translate(1008 0)">
        <rect width="160" height="96" rx="16" fill="url(#card)" stroke="#274761"/>
        <text x="22" y="38" fill="#66e6ff" font-size="20" font-weight="700">/check</text>
        <text x="22" y="67" fill="#bfd7ef" font-size="15">validate</text>
      </g>
    </g>

    <rect x="52" y="305" width="1076" height="58" rx="14" fill="#08111f" stroke="#213b54"/>
    <text x="78" y="342" fill="#61ff9b" font-size="18">python tools/yidun_click_solver.py --json-out results/live_auto_validation_compact.json</text>
  </g>
</svg>
